# xmcd
#
# Track frame offsets:
#	150
#	16010
#	29488
#	43165
#	56323
#	77508
#	91843
#	107860
#	123205
#	139260
#
# Disc length: 2047 seconds
#
# Revision: 2
# Processed by: cddbd v1.5.1PL0 Copyright (c) Steve Scherf et al.
# Submitted via: audiograbber 1.83.01
#
DISCID=7507fd0a
DTITLE=Various Artist - Country Music Classics Volume 6 1980-1985
DYEAR=1992
DGENRE=Country
TTITLE0=Johnny Lee - Lookin' For Love
TTITLE1=Terri Gibbs - Knockin'
TTITLE2=John Anderson - Swingin'
TTITLE3=Larry Gatlin and The Gatlin Brothers Band - Houston (Means I'm One Day Cl
TTITLE3=oser To You)
TTITLE4=Gary Morris - The Wind Beneath My Wings
TTITLE5=Eddie Rabbitt - I Love A Rainy Night
TTITLE6=Willie Nelson - Always On My Mind
TTITLE7=Alabama - Feels So Right
TTITLE8=Ronnie Milsap - I Wouldn't Have Missed It For The World
TTITLE9=Lee Greenwood - God Bless The USA
EXTD=
EXTT0=
EXTT1=
EXTT2=
EXTT3=
EXTT4=
EXTT5=
EXTT6=
EXTT7=
EXTT8=
EXTT9=
PLAYORDER=
